<svg width="512" height="512" viewBox="0 0 512 512" fill="none" xmlns="http://www.w3.org/2000/svg">
<rect width="512" height="512" rx="50" fill="white"/>
<g clip-path="url(#clip0_124_80)">
<mask id="mask0_124_80" style="mask-type:luminance" maskUnits="userSpaceOnUse" x="47" y="106" width="418" height="300">
<path d="M465 406L465 106L47 106L47 406L465 406Z" fill="white"/>
</mask>
<g mask="url(#mask0_124_80)">
<path d="M135.888 318.636L135.888 263.739C161.075 263.739 181.476 278.34 181.476 296.367L181.476 318.718C181.476 348.246 214.299 372.881 255.557 373.37C297.612 373.86 331.918 349.47 331.918 319.533C331.918 306.482 325.307 293.92 313.34 284.132L223.531 212.675C206.663 199.298 208.259 178.66 226.95 166.588L346.05 261.373C346.506 261.7 346.962 262.107 347.418 262.434L351.406 265.86C368.274 281.113 377.506 300.038 377.506 319.533C377.506 367.416 322.913 406.244 256.012 405.999C189.34 405.754 135.888 366.274 135.888 318.636Z" fill="#191919"/>
<path d="M135.888 191.467C135.888 143.585 190.48 104.757 257.381 105.002C324.053 105.246 377.506 144.727 377.506 192.446L377.506 247.343C352.318 247.343 331.918 232.742 331.918 214.715L331.918 192.283C331.918 162.754 299.094 138.119 257.836 137.63C215.781 137.141 181.476 161.53 181.476 191.467C181.476 204.518 188.086 217.08 200.053 226.869L289.862 298.325C306.73 311.703 305.134 332.34 286.443 344.413L161.986 245.385L161.986 245.141C145.118 229.887 135.888 211.044 135.888 191.467Z" fill="#191919"/>
</g>
</g>
<defs>
<clipPath id="clip0_124_80">
<rect width="300" height="418" fill="white" transform="translate(465 106) rotate(90)"/>
</clipPath>
</defs>
</svg>
