<svg width="1025" height="1024" viewBox="0 0 1025 1024" fill="none" xmlns="http://www.w3.org/2000/svg">
<path d="M0.5 90C0.5 40.2944 40.7944 0 90.5 0H934.5C984.206 0 1024.5 40.2944 1024.5 90V934C1024.5 983.706 984.206 1024 934.5 1024H90.5C40.7944 1024 0.5 983.706 0.5 934V90Z" fill="white"/>
<mask id="mask0_124_79" style="mask-type:luminance" maskUnits="userSpaceOnUse" x="149" y="251" width="727" height="522">
<path d="M875.025 772.186L875.025 251.814L149.974 251.814L149.974 772.186L875.025 772.186Z" fill="white"/>
</mask>
<g mask="url(#mask0_124_79)">
<path d="M304.156 621.15L304.156 526.243C347.845 526.243 383.232 551.486 383.232 582.651L383.232 621.292C383.232 672.34 440.166 714.929 511.731 715.775C584.678 716.622 644.184 674.456 644.184 622.701C644.184 600.138 632.718 578.421 611.959 561.499L456.18 437.963C426.921 414.836 429.689 379.158 462.111 358.287L668.697 522.153C669.488 522.718 670.279 523.422 671.07 523.987L677.989 529.91C707.247 556.28 723.26 588.997 723.26 622.701C723.26 705.481 628.566 772.608 512.521 772.184C396.873 771.761 304.156 703.507 304.156 621.15Z" fill="#191919"/>
<path d="M304.156 401.298C304.156 318.519 398.85 251.393 514.895 251.816C630.543 252.239 723.261 320.493 723.261 402.991V497.898C679.571 497.898 644.184 472.655 644.184 441.49V402.709C644.184 351.659 587.25 309.071 515.685 308.224C442.738 307.378 383.233 349.544 383.233 401.298C383.233 423.862 394.698 445.579 415.457 462.502L571.236 586.036C600.495 609.164 597.727 644.842 565.305 665.714L349.426 494.513V494.091C320.168 467.719 304.156 435.143 304.156 401.298Z" fill="#191919"/>
</g>
</svg>
