<svg width="579" height="579" viewBox="0 0 579 579" fill="none" xmlns="http://www.w3.org/2000/svg">
<circle cx="289.5" cy="289.5" r="289.5" fill="#F01C5C"/>
<path d="M290 34C148.6 34 34 148.6 34 290C34 431.4 148.6 546 290 546C431.4 546 546 431.4 546 290C546 148.6 431.4 34 290 34ZM266 186C266 172.8 276.8 162 290 162C303.2 162 314 172.75 314 186V314C314 327.25 303.25 338 290 338C276.75 338 266 327.3 266 314V186ZM290 434C272.64 434 258.56 419.92 258.56 402.56C258.56 385.2 272.63 371.12 290 371.12C307.37 371.12 321.44 385.2 321.44 402.56C321.4 419.9 307.4 434 290 434Z" fill="white"/>
</svg>
